<?xml version="1.0" encoding="UTF-8"?>
<svg width="100px" height="100px" viewBox="0 0 100 100" version="1.1" xmlns="http://www.w3.org/2000/svg" xmlns:xlink="http://www.w3.org/1999/xlink">
    <!-- Generator: Sketch 43.1 (39012) - http://www.bohemiancoding.com/sketch -->
    <title>Accounting</title>
    <desc>Created with Sketch.</desc>
    <defs></defs>
    <g id="Symbols" stroke="none" stroke-width="1" fill="none" fill-rule="evenodd">
        <g id="Accounting" stroke="#44C960" stroke-width="2">
            <g id="Page-1" transform="translate(-20.000000, 16.000000)">
                <path d="M88.9187634,0 L62.1927711,0 L62.1927711,73.2938239 L88.9187634,73.2938239 L88.9187634,0 Z M75.5557672,66.630854 C71.8684651,66.630854 68.8736901,63.6441249 68.8736901,59.9667291 C68.8736901,56.2904883 71.8684651,53.3037592 75.5557672,53.3037592 C79.2430694,53.3037592 82.2366863,56.2904883 82.2366863,59.9667291 C82.2366863,63.6441249 79.2430694,66.630854 75.5557672,66.630854 Z M82.2366863,26.6541895 L68.8736901,26.6541895 L68.8736901,23.3198172 L82.2366863,23.3198172 L82.2366863,26.6541895 Z M82.2366863,19.9900647 L68.8736901,19.9900647 L68.8736901,16.6556923 L82.2366863,16.6556923 L82.2366863,19.9900647 Z M82.2366863,13.3270948 L68.8736901,13.3270948 L68.8736901,9.99272241 L82.2366863,9.99272241 L82.2366863,13.3270948 Z" id="Fill-3"></path>
                <path d="M57.8223778,0 L31.0963855,0 L31.0963855,73.2938239 L57.8223778,73.2938239 L57.8223778,0 Z M44.4593817,66.630854 C40.7720795,66.630854 37.7773046,63.6441249 37.7773046,59.9667291 C37.7773046,56.2904883 40.7720795,53.3037592 44.4593817,53.3037592 C48.1466839,53.3037592 51.1403007,56.2904883 51.1403007,59.9667291 C51.1403007,63.6441249 48.1466839,66.630854 44.4593817,66.630854 Z M51.1403007,26.6541895 L37.7773046,26.6541895 L37.7773046,23.3198172 L51.1403007,23.3198172 L51.1403007,26.6541895 Z M51.1403007,19.9900647 L37.7773046,19.9900647 L37.7773046,16.6556923 L51.1403007,16.6556923 L51.1403007,19.9900647 Z M51.1403007,13.3270948 L37.7773046,13.3270948 L37.7773046,9.99272241 L51.1403007,9.99272241 L51.1403007,13.3270948 Z" id="Fill-3-Copy"></path>
                <path d="M26.7259923,0 L0,0 L0,73.2938239 L26.7259923,73.2938239 L26.7259923,0 Z M13.3629961,66.630854 C9.67569398,66.630854 6.68091904,63.6441249 6.68091904,59.9667291 C6.68091904,56.2904883 9.67569398,53.3037592 13.3629961,53.3037592 C17.0502983,53.3037592 20.0439152,56.2904883 20.0439152,59.9667291 C20.0439152,63.6441249 17.0502983,66.630854 13.3629961,66.630854 Z M20.0439152,26.6541895 L6.68091904,26.6541895 L6.68091904,23.3198172 L20.0439152,23.3198172 L20.0439152,26.6541895 Z M20.0439152,19.9900647 L6.68091904,19.9900647 L6.68091904,16.6556923 L20.0439152,16.6556923 L20.0439152,19.9900647 Z M20.0439152,13.3270948 L6.68091904,13.3270948 L6.68091904,9.99272241 L20.0439152,9.99272241 L20.0439152,13.3270948 Z" id="Fill-3-Copy-2"></path>
            </g>
        </g>
    </g>
</svg>