<?xml version="1.0" encoding="UTF-8"?>
<svg width="100px" height="100px" viewBox="0 0 100 100" version="1.1" xmlns="http://www.w3.org/2000/svg" xmlns:xlink="http://www.w3.org/1999/xlink">
    <!-- Generator: Sketch 43.1 (39012) - http://www.bohemiancoding.com/sketch -->
    <title>build</title>
    <desc>Created with Sketch.</desc>
    <defs>
        <path d="M58,31 L64,31 L64,33 L58,33 L58,31 Z M58,37 L64,37 L64,39 L58,39 L58,37 Z M58,43 L64,43 L64,45 L58,45 L58,43 Z M58,49 L64,49 L64,51 L58,51 L58,49 Z M58,55 L64,55 L64,57 L58,57 L58,55 Z M58,61 L64,61 L64,63 L58,63 L58,61 Z M58,67 L64,67 L64,69 L58,69 L58,67 Z M58,73 L64,73 L64,75 L58,75 L58,73 Z M58,79 L64,79 L64,81 L58,81 L58,79 Z M58,85 L64,85 L64,87 L58,87 L58,85 Z M58,91 L64,91 L64,93 L58,93 L58,91 Z M58,97 L64,97 L64,99 L58,99 L58,97 Z M58,103 L64,103 L64,105 L58,105 L58,103 Z M58,109 L64,109 L64,111 L58,111 L58,109 Z" id="path-1"></path>
        <path d="M38,8 L45,8 L45,10 L38,10 L38,8 Z M38,14 L45,14 L45,16 L38,16 L38,14 Z M38,20 L45,20 L45,22 L38,22 L38,20 Z M38,26 L45,26 L45,28 L38,28 L38,26 Z M38,32 L45,32 L45,34 L38,34 L38,32 Z M38,38 L45,38 L45,40 L38,40 L38,38 Z M38,44 L45,44 L45,46 L38,46 L38,44 Z M38,50 L45,50 L45,52 L38,52 L38,50 Z M38,56 L45,56 L45,58 L38,58 L38,56 Z M38,62 L45,62 L45,64 L38,64 L38,62 Z M38,68 L45,68 L45,70 L38,70 L38,68 Z M38,74 L45,74 L45,76 L38,76 L38,74 Z M38,80 L45,80 L45,82 L38,82 L38,80 Z M38,86 L45,86 L45,88 L38,88 L38,86 Z" id="path-2"></path>
        <path d="M30,8 L34,8 L34,10 L30,10 L30,8 Z M30,14 L34,14 L34,16 L30,16 L30,14 Z M30,20 L34,20 L34,22 L30,22 L30,20 Z M30,26 L34,26 L34,28 L30,28 L30,26 Z M30,32 L34,32 L34,34 L30,34 L30,32 Z M30,38 L34,38 L34,40 L30,40 L30,38 Z M30,44 L34,44 L34,46 L30,46 L30,44 Z M30,50 L34,50 L34,52 L30,52 L30,50 Z M30,56 L34,56 L34,58 L30,58 L30,56 Z M30,62 L34,62 L34,64 L30,64 L30,62 Z M30,68 L34,68 L34,70 L30,70 L30,68 Z M30,74 L34,74 L34,76 L30,76 L30,74 Z M30,80 L34,80 L34,82 L30,82 L30,80 Z M30,86 L34,86 L34,88 L30,88 L30,86 Z" id="path-3"></path>
    </defs>
    <g id="Symbols" stroke="none" stroke-width="1" fill="none" fill-rule="evenodd">
        <g id="build">
            <g id="Building" transform="translate(20.000000, 30.000000)">
                <rect id="Rectangle-3" stroke="#44C960" stroke-width="2" x="1" y="1" width="44" height="120" rx="4"></rect>
                <path d="M49.0048418,27 L62.0010937,27 C63.6563634,27 65,28.3467015 65,30.007086 L65,143.992914 C65,145.652311 63.652285,147 61.9955677,147 L45.7378816,147 L49.0048418,27 Z" id="Rectangle-3-Copy" stroke="#44C960" stroke-width="2"></path>
                <g id="Combined-Shape-Copy">
                    <use fill="#44C960" fill-rule="evenodd" xlink:href="#path-1"></use>
                    <path stroke="#44C960" stroke-width="1" d="M58.5,31.5 L63.5,31.5 L63.5,32.5 L58.5,32.5 L58.5,31.5 Z M58.5,37.5 L63.5,37.5 L63.5,38.5 L58.5,38.5 L58.5,37.5 Z M58.5,43.5 L63.5,43.5 L63.5,44.5 L58.5,44.5 L58.5,43.5 Z M58.5,49.5 L63.5,49.5 L63.5,50.5 L58.5,50.5 L58.5,49.5 Z M58.5,55.5 L63.5,55.5 L63.5,56.5 L58.5,56.5 L58.5,55.5 Z M58.5,61.5 L63.5,61.5 L63.5,62.5 L58.5,62.5 L58.5,61.5 Z M58.5,67.5 L63.5,67.5 L63.5,68.5 L58.5,68.5 L58.5,67.5 Z M58.5,73.5 L63.5,73.5 L63.5,74.5 L58.5,74.5 L58.5,73.5 Z M58.5,79.5 L63.5,79.5 L63.5,80.5 L58.5,80.5 L58.5,79.5 Z M58.5,85.5 L63.5,85.5 L63.5,86.5 L58.5,86.5 L58.5,85.5 Z M58.5,91.5 L63.5,91.5 L63.5,92.5 L58.5,92.5 L58.5,91.5 Z M58.5,97.5 L63.5,97.5 L63.5,98.5 L58.5,98.5 L58.5,97.5 Z M58.5,103.5 L63.5,103.5 L63.5,104.5 L58.5,104.5 L58.5,103.5 Z M58.5,109.5 L63.5,109.5 L63.5,110.5 L58.5,110.5 L58.5,109.5 Z"></path>
                </g>
                <g id="Combined-Shape">
                    <use fill="#44C960" fill-rule="evenodd" xlink:href="#path-2"></use>
                    <path stroke="#44C960" stroke-width="1" d="M38.5,8.5 L44.5,8.5 L44.5,9.5 L38.5,9.5 L38.5,8.5 Z M38.5,14.5 L44.5,14.5 L44.5,15.5 L38.5,15.5 L38.5,14.5 Z M38.5,20.5 L44.5,20.5 L44.5,21.5 L38.5,21.5 L38.5,20.5 Z M38.5,26.5 L44.5,26.5 L44.5,27.5 L38.5,27.5 L38.5,26.5 Z M38.5,32.5 L44.5,32.5 L44.5,33.5 L38.5,33.5 L38.5,32.5 Z M38.5,38.5 L44.5,38.5 L44.5,39.5 L38.5,39.5 L38.5,38.5 Z M38.5,44.5 L44.5,44.5 L44.5,45.5 L38.5,45.5 L38.5,44.5 Z M38.5,50.5 L44.5,50.5 L44.5,51.5 L38.5,51.5 L38.5,50.5 Z M38.5,56.5 L44.5,56.5 L44.5,57.5 L38.5,57.5 L38.5,56.5 Z M38.5,62.5 L44.5,62.5 L44.5,63.5 L38.5,63.5 L38.5,62.5 Z M38.5,68.5 L44.5,68.5 L44.5,69.5 L38.5,69.5 L38.5,68.5 Z M38.5,74.5 L44.5,74.5 L44.5,75.5 L38.5,75.5 L38.5,74.5 Z M38.5,80.5 L44.5,80.5 L44.5,81.5 L38.5,81.5 L38.5,80.5 Z M38.5,86.5 L44.5,86.5 L44.5,87.5 L38.5,87.5 L38.5,86.5 Z"></path>
                </g>
                <g id="Combined-Shape">
                    <use fill="#44C960" fill-rule="evenodd" xlink:href="#path-3"></use>
                    <path stroke="#44C960" stroke-width="1" d="M30.5,8.5 L33.5,8.5 L33.5,9.5 L30.5,9.5 L30.5,8.5 Z M30.5,14.5 L33.5,14.5 L33.5,15.5 L30.5,15.5 L30.5,14.5 Z M30.5,20.5 L33.5,20.5 L33.5,21.5 L30.5,21.5 L30.5,20.5 Z M30.5,26.5 L33.5,26.5 L33.5,27.5 L30.5,27.5 L30.5,26.5 Z M30.5,32.5 L33.5,32.5 L33.5,33.5 L30.5,33.5 L30.5,32.5 Z M30.5,38.5 L33.5,38.5 L33.5,39.5 L30.5,39.5 L30.5,38.5 Z M30.5,44.5 L33.5,44.5 L33.5,45.5 L30.5,45.5 L30.5,44.5 Z M30.5,50.5 L33.5,50.5 L33.5,51.5 L30.5,51.5 L30.5,50.5 Z M30.5,56.5 L33.5,56.5 L33.5,57.5 L30.5,57.5 L30.5,56.5 Z M30.5,62.5 L33.5,62.5 L33.5,63.5 L30.5,63.5 L30.5,62.5 Z M30.5,68.5 L33.5,68.5 L33.5,69.5 L30.5,69.5 L30.5,68.5 Z M30.5,74.5 L33.5,74.5 L33.5,75.5 L30.5,75.5 L30.5,74.5 Z M30.5,80.5 L33.5,80.5 L33.5,81.5 L30.5,81.5 L30.5,80.5 Z M30.5,86.5 L33.5,86.5 L33.5,87.5 L30.5,87.5 L30.5,86.5 Z"></path>
                </g>
            </g>
        </g>
    </g>
</svg>