<?xml version="1.0" encoding="UTF-8"?>
<svg width="100px" height="100px" viewBox="0 0 100 100" version="1.1" xmlns="http://www.w3.org/2000/svg" xmlns:xlink="http://www.w3.org/1999/xlink">
    <!-- Generator: Sketch 43.1 (39012) - http://www.bohemiancoding.com/sketch -->
    <title>Bus</title>
    <desc>Created with Sketch.</desc>
    <defs></defs>
    <g id="Symbols" stroke="none" stroke-width="1" fill="none" fill-rule="evenodd">
        <g id="Bus" stroke="#56B96C" stroke-width="2">
            <path d="M-27.3489,40.0000001 C-19.8242158,40.0000084 -14.0130539,40.0007652 1.13079874,40.0033025 C22.3994471,40.0068661 32.8031137,40.0076644 45.234599,40.005427 C51.0648446,40.0043778 56.6099725,40.002601 61.9555428,39.9999999 C66.3381064,40.0552899 70.9158036,42.329267 73.5057881,45.8764348 C73.5961728,46.0587662 73.7422164,46.3553373 73.9368618,46.7537973 C74.3102253,47.5181127 74.7263863,48.3795681 75.1746237,49.3193952 C76.4552486,52.0045036 77.7358195,54.7784386 78.9303956,57.4905447 C79.351721,58.447101 79.75558,59.3809211 80.1396946,60.2879937 C81.2938118,63.0133989 82.246821,65.4425058 82.9543716,67.4956425 L83.1155041,67.9632091 L83.5848945,68.118949 C86.9870647,69.2477616 89.3705937,70.6140098 91.4053462,72.7380058 C92.4189892,73.898 93,75.2264275 93,76.6179775 C93,77.3140163 92.9939917,77.8522031 92.9783183,78.8105116 C92.977051,78.8878711 92.977051,78.8878711 92.9757785,78.9653554 C92.9390369,81.2034789 92.9390369,82.5037329 93.0003005,85.0020427 C92.9468722,87.7430553 90.1245538,90.495407 86.8799688,90.9438202 L79.9373783,90.9438202 L79.0705175,90.9438202 L78.9474991,91.8019077 C78.3338319,96.0824051 74.6671854,99.3033708 70.3146067,99.3033708 C65.9620281,99.3033708 62.2953816,96.0824051 61.6817144,91.8019077 L61.558696,90.9438202 L60.6918352,90.9438202 L4.70142322,90.9438202 L3.83456247,90.9438202 L3.71154403,91.8019077 C3.09787681,96.0824051 -0.568769675,99.3033708 -4.92134831,99.3033708 C-9.27392695,99.3033708 -12.9405734,96.0824051 -13.5542407,91.8019077 L-13.6772591,90.9438202 L-14.5441199,90.9438202 L-28.6067416,90.9438202 C-28.7882396,90.9438202 -29,90.7320598 -29,90.5505618 L-29,86.3707865 C-28.9981862,86.2206161 -28.8403213,86.0323648 -28.6843856,86.0031269 L-28.0554629,85.8852039 L-27.8990211,85.2647398 C-27.8803825,85.1908172 -27.8631281,85.132638 -27.8087315,84.9567713 C-27.6201613,84.3471154 -27.5561079,84.0181529 -27.614342,83.548523 C-28.9941032,68.1890837 -28.9957711,55.6082191 -27.6108375,40.3536372 C-27.600271,40.2067832 -27.4781298,40.0538499 -27.3489,40.0000001 Z M-20.4218127,50.5393258 L-21.2307947,50.5393258 L-21.3997584,51.3304662 C-22.4583177,56.2869699 -22.4583177,62.1175245 -21.3997584,67.0740282 L-21.2307947,67.8651685 L-20.4218127,67.8651685 L-10.494382,67.8651685 L-9.49438202,67.8651685 L-9.49438202,66.8651685 L-9.49438202,51.5393258 L-9.49438202,50.5393258 L-10.494382,50.5393258 L-20.4218127,50.5393258 Z M-3.52808989,50.5393258 L-4.52808989,50.5393258 L-4.52808989,51.5393258 L-4.52808989,66.8651685 L-4.52808989,67.8651685 L-3.52808989,67.8651685 L9.01123596,67.8651685 L10.011236,67.8651685 L10.011236,66.8651685 L10.011236,51.5393258 L10.011236,50.5393258 L9.01123596,50.5393258 L-3.52808989,50.5393258 Z M15.9775281,50.5393258 L14.9775281,50.5393258 L14.9775281,51.5393258 L14.9775281,66.8651685 L14.9775281,67.8651685 L15.9775281,67.8651685 L28.5168539,67.8651685 L29.5168539,67.8651685 L29.5168539,66.8651685 L29.5168539,51.5393258 L29.5168539,50.5393258 L28.5168539,50.5393258 L15.9775281,50.5393258 Z M35.4831461,50.5393258 L34.4831461,50.5393258 L34.4831461,51.5393258 L34.4831461,66.8651685 L34.4831461,67.8651685 L35.4831461,67.8651685 L52.2022472,67.8651685 L53.2022472,67.8651685 L53.2022472,66.8651685 L53.2022472,51.5393258 L53.2022472,50.5393258 L52.2022472,50.5393258 L35.4831461,50.5393258 Z M59.1685393,50.5393258 L58.1685393,50.5393258 L58.1685393,51.5393258 L58.1685393,66.8651685 L58.1685393,67.8651685 L59.1685393,67.8651685 L75.1910112,67.8651685 L76.6711843,67.8651685 L76.1187541,66.4919485 C73.0700048,58.9134279 70.9382952,54.2328454 68.8950801,51.0045322 L68.6006487,50.5393258 L68.0500974,50.5393258 L59.1685393,50.5393258 Z M35.4831461,68.6516854 L34.4831461,68.6516854 L34.4831461,69.6516854 L34.4831461,83.5842697 L34.4831461,84.5842697 L35.4831461,84.5842697 L52.2022472,84.5842697 L53.2022472,84.5842697 L53.2022472,83.5842697 L53.2022472,69.6516854 L53.2022472,68.6516854 L52.2022472,68.6516854 L35.4831461,68.6516854 Z M-4.92134831,82.5842697 C-9.33388775,82.5842697 -12.8876404,86.1380224 -12.8876404,90.5505618 C-12.8876404,94.9631012 -9.33388775,98.5168539 -4.92134831,98.5168539 C-0.508808883,98.5168539 3.04494382,94.9631012 3.04494382,90.5505618 C3.04494382,86.1380224 -0.508808883,82.5842697 -4.92134831,82.5842697 Z M70.3146067,82.5842697 C65.9020673,82.5842697 62.3483146,86.1380224 62.3483146,90.5505618 C62.3483146,94.9631012 65.9020673,98.5168539 70.3146067,98.5168539 C74.7271462,98.5168539 78.2808989,94.9631012 78.2808989,90.5505618 C78.2808989,86.1380224 74.7271462,82.5842697 70.3146067,82.5842697 Z M33.8901099,95.7303371 L53.5955056,95.7303371 C53.7894195,95.7284387 54.0110562,95.9467291 54.0110562,96.1235955 C54.0110562,96.2996278 53.7869816,96.5205269 53.6157546,96.517059 L34.0898876,96.5168539 C33.8128066,96.5374874 33.5785035,96.3438485 33.5626891,96.1653712 C33.54684,95.9869555 33.7215773,95.7653268 33.8901099,95.7303371 Z" id="Page-1"></path>
        </g>
    </g>
</svg>