<?xml version="1.0" encoding="UTF-8"?>
<svg width="100px" height="100px" viewBox="0 0 100 100" version="1.1" xmlns="http://www.w3.org/2000/svg" xmlns:xlink="http://www.w3.org/1999/xlink">
    <!-- Generator: Sketch 43.1 (39012) - http://www.bohemiancoding.com/sketch -->
    <title>cleening</title>
    <desc>Created with Sketch.</desc>
    <defs></defs>
    <g id="Symbols" stroke="none" stroke-width="1" fill="none" fill-rule="evenodd">
        <g id="cleening" stroke="#44C960" stroke-width="2">
            <g id="Page-1" transform="translate(48.500000, 44.500000) scale(-1, 1) translate(-48.500000, -44.500000) translate(15.000000, 12.000000)">
                <path d="M30.2304868,28.2616351 C30.213495,28.1973659 30.1973368,28.1361006 30.1823103,28.0789304 L30.2304868,28.2616351 Z M30.1823103,28.0789304 C30.1672839,28.0217602 30.1533891,27.968685 30.140924,27.9207959 C31.6915067,24.2933284 33.6516899,21.3669031 35.7501178,19.668391 L37.9458644,17.8911071 L35.221871,17.8911071 L35.221871,12.1907168 L37.2822581,12.1907168 L38.2822581,12.1907168 L38.2822581,11.1907168 L38.2822581,6.08791916 C38.2822581,3.41871249 40.4462233,1.26750697 43.1371935,1.26750697 C45.8281638,1.26750697 47.992129,3.41871249 47.992129,6.08791916 L47.992129,11.1907168 L47.992129,12.1907168 L48.992129,12.1907168 L51.0525161,12.1907168 L51.0525161,18.6225388 L51.0525161,19.2449906 L51.6110188,19.5198014 C59.4327267,23.3684664 65.459617,33.6136485 65.455355,42.6170316 L65.4553548,60.611581 C65.4553548,62.2065145 64.194809,63.4596276 62.5844839,63.4596276 L32.9670139,63.4596276 L32.9670115,63.4596278 C32.9674345,63.4350047 32.9676452,63.4102467 32.9676452,63.3853544 L32.9676452,63.2229908 L62.5844839,63.2229908 C64.0345459,63.2229908 65.2054516,62.0589893 65.2054516,60.611581 L65.2054516,42.617505 C65.2054516,30.6401535 55.4526791,18.071585 44.6652258,18.071585 L40.1654194,18.071585 C36.3292093,18.071585 32.6291411,22.2348108 30.2304868,28.2616351 L30.1823103,28.0789304 Z M38.6431772,4.99982875 L38.5278387,4.99982875 L38.5278387,5.99982875 L38.5278387,11.1026264 L38.5278387,12.1026264 L39.5278387,12.1026264 L46.7335806,12.1026264 L47.7335806,12.1026264 L47.7335806,11.1026264 L47.7335806,5.99982875 C47.7335806,3.47814732 45.6635781,1.42035046 43.132871,1.42035046 C40.9466621,1.42035046 39.1042661,2.95603502 38.6431772,4.99982875 Z M36.3831613,12.4316507 L35.3831613,12.4316507 L35.3831613,13.4316507 L35.3831613,16.5663799 L35.3831613,17.5663799 L36.3831613,17.5663799 L49.7096774,17.5663799 L50.7096774,17.5663799 L50.7096774,16.5663799 L50.7096774,13.4316507 L50.7096774,12.4316507 L49.7096774,12.4316507 L36.3831613,12.4316507 Z" id="Fill-1"></path>
                <path d="M60.3186452,41.367051 L60.238,41.367051 C54.1993303,41.367051 50.3429355,34.4942465 50.3429355,25.5353385 L50.3429355,25.2691308 L50.5188029,25.356546 C55.3113138,27.8364872 60.3186452,35.1942121 60.3186452,41.2003903 L60.3186452,41.367051 Z" id="Fill-2"></path>
                <path d="M3.20525372,13.3483502 L3.15960268,12.563576 L3.10480989,11.6216487 L2.16129032,11.6216487 L1.54032258,11.6216487 L1.54032258,10.2183513 L2.06835484,10.2183513 L3.11439328,10.2183513 L3.06734274,9.17337151 L3.02578038,8.25028276 L24.4673368,8.25028276 L29.0213775,15.9153167 L28.9161728,15.9337554 C28.7791545,15.9497367 28.4558513,15.9927035 28.0362732,16.0525817 C27.3372768,16.1523359 26.6262942,16.2632891 25.9443986,16.3828016 L25.1734579,16.5179206 L25.1194186,17.2987448 C25.0626693,18.1187256 25.2541564,19.4159971 25.6412662,21.22881 C25.7107863,21.5543686 25.7861456,21.8936832 25.8683373,22.2527426 C25.9946171,22.8044034 26.0386196,22.9891836 26.3139635,24.1351421 C26.5918668,25.1024278 26.6867107,25.4644422 26.7513364,25.8561776 L26.7906493,26.0136029 C26.7577638,25.9163065 26.7262245,25.9610818 26.6107033,25.999668 L25.7374904,26.2913375 L25.9561239,27.1856368 C26.0711953,27.6563257 26.1878666,28.1136464 26.3354349,28.6773061 C26.3652889,28.791338 26.6216991,29.7642174 26.694616,30.044839 C27.3412126,32.5332763 27.6885659,34.3393629 28.0060598,37.2576122 C28.4411609,41.5122369 28.8400561,53.476834 28.9923575,62.8601497 C28.9922258,63.364581 28.5421638,63.8119892 28.0124839,63.8119892 L6.48819355,63.8119892 C5.87763437,63.8119892 5.46299466,63.3858689 5.50555832,62.8275478 C6.23080029,52.09944 7.23181186,42.8754184 8.27300261,40.9327543 C8.96191845,39.6550979 10.2815481,38.3435085 12.6449919,36.4230763 C12.8497407,36.2567063 13.0602204,36.0870511 13.3362544,35.8655583 C13.3368104,35.8651122 13.8711466,35.4367468 14.0217535,35.3156709 C14.5756389,34.8703911 14.9662602,34.5508335 15.3324719,34.2404991 C15.6772236,33.9445754 16.8206388,33.0187679 17.0097532,32.8591649 C18.6695764,31.4583579 19.4918764,30.2449787 19.8139979,28.2669555 L20.0030236,27.1062226 L18.827,27.1062226 C18.8797133,27.1062226 18.8349677,27.0562806 18.8349677,27.0319494 C18.8349677,25.8160798 18.0560515,20.8618664 17.6433063,18.9448914 C17.4503531,17.8248156 15.6000198,16.7042562 12.975776,15.9569756 L11.9539591,15.6660027 L11.7253314,16.70355 C10.7631017,21.0702935 8.54301589,23.9051139 6.2699222,25.1774621 C6.11173858,25.2786733 5.81818744,25.228709 5.66085154,25.0723009 C5.52806269,24.9082313 5.50067265,24.6448769 5.6416347,24.3992258 C7.24777694,21.8923474 7.83432214,18.9749137 8.02283699,15.3594016 L8.06599067,14.5317604 L7.26074682,14.3357132 L3.20525372,13.3483502 Z M25.337217,16.3003829 L25.3551287,16.2974627 C25.681683,16.2570969 25.985111,16.2049103 26.4735561,16.1110269 C27.0952203,15.9915376 27.1956372,15.9731313 27.4249991,15.9410063 L28.9096597,15.7330607 L28.1473599,14.4421859 L24.8168115,8.80225163 L24.5265586,8.31073875 L23.9557419,8.31073875 L5.04445161,8.31073875 L4.04445161,8.31073875 L4.04445161,9.31073875 L4.04445161,12.4454679 L4.04445161,13.2352853 L4.81278157,13.4182624 L8.95381383,14.4044452 L11.9912772,15.2044037 C15.2106614,16.0065136 17.6211011,17.2032129 17.933768,18.6528929 L17.941222,18.6512852 C18.0418125,19.2778728 18.369209,21.1278655 18.5089886,21.9839437 C18.5689342,22.3510796 18.6252146,22.7061748 18.6774865,23.0481593 C18.9342497,24.7280108 19.0805484,26.0035761 19.0805484,26.6795878 L19.0805484,27.7987394 L20.1926462,27.673285 L25.7730978,27.0437609 L26.8523513,26.9220116 L26.6420801,25.8564615 C26.6655968,25.9756322 26.4966108,25.0582136 26.4309346,24.7718353 C26.3766987,24.5353418 26.317805,24.3203198 26.2495765,24.1184561 C25.0982515,19.4072606 24.8264456,17.3744482 25.3067983,16.3607898 L25.337217,16.3003829 Z" id="Fill-3"></path>
            </g>
        </g>
    </g>
</svg>