<?xml version="1.0" encoding="UTF-8"?>
<svg width="100px" height="100px" viewBox="0 0 100 100" version="1.1" xmlns="http://www.w3.org/2000/svg" xmlns:xlink="http://www.w3.org/1999/xlink">
    <!-- Generator: Sketch 43.1 (39012) - http://www.bohemiancoding.com/sketch -->
    <title>Food</title>
    <desc>Created with Sketch.</desc>
    <defs></defs>
    <g id="Symbols" stroke="none" stroke-width="1" fill="none" fill-rule="evenodd">
        <g id="Food">
            <path d="M75,45 L75,13.009101 C75,8.58323463 71.418278,5 67,5 C62.5907123,5 59,8.58579666 59,13.009101 L59,54 L63,54 L63,78.9916382 C63,82.3099648 65.6930342,85 69,85 C72.3137085,85 75,82.3132752 75,78.9916382 L75,45 Z" id="Combined-Shape" stroke="#3ECB5B" stroke-width="2"></path>
            <path d="M44,38.4460918 L44,79.5088675 C44,82.5415362 41.5313853,85 38.5,85 C35.4624339,85 33,82.5443236 33,79.5088675 L33,38.4480946 C29.9999244,36.6015645 28,33.287726 28,29.4982467 L28,9.00235843 C28,7.34420165 29.3455902,6 31.008788,6 L45.991212,6 C47.6529197,6 49,7.34331243 49,9.00235843 L49,29.4982467 C49,33.2814821 47.0003666,36.5974734 44,38.4460918 Z" id="Combined-Shape" stroke="#3ECB5B" stroke-width="2"></path>
            <path d="M32,7.5 L32,7 L33,7 L33,7.5 L33,28.5950231 L33,29.0950231 L32,29.0950231 L32,28.5950231 L32,7.5 Z M36,7.5 L36,7 L37,7 L37,7.5 L37,28.5950231 L37,29.0950231 L36,29.0950231 L36,28.5950231 L36,7.5 Z M40,7.5 L40,7 L41,7 L41,7.5 L41,28.5950231 L41,29.0950231 L40,29.0950231 L40,28.5950231 L40,7.5 Z M44,7.5 L44,7 L45,7 L45,7.5 L45,28.5950231 L45,29.0950231 L44,29.0950231 L44,28.5950231 L44,7.5 Z" id="Combined-Shape" fill="#3ECB5B"></path>
        </g>
    </g>
</svg>