<?xml version="1.0" encoding="UTF-8"?>
<svg width="81px" height="67px" viewBox="0 0 81 67" version="1.1" xmlns="http://www.w3.org/2000/svg" xmlns:xlink="http://www.w3.org/1999/xlink">
    <!-- Generator: Sketch 43.2 (39069) - http://www.bohemiancoding.com/sketch -->
    <title>Group 3</title>
    <desc>Created with Sketch.</desc>
    <defs></defs>
    <g id="Page-1" stroke="none" stroke-width="1" fill="none" fill-rule="evenodd">
        <g id="services" transform="translate(-1044.000000, -264.000000)" stroke-width="2" stroke="#3ECB5B">
            <g id="Group-5" transform="translate(735.000000, 262.000000)">
                <g id="Group-2">
                    <g id="Group-25" transform="translate(309.000000, 2.000000)">
                        <path d="M67.7392016,37.9929021 L55.477775,50.5307052 L55.472777,50.5358105 L43.4762894,62.8029879 C42.1114058,64.1971811 39.8991014,64.1971811 38.5341538,62.8029879 L26.5325466,50.5358105 L26.5275486,50.5307052 L14.2635616,37.9929021 C7.24907851,30.8173305 7.24907851,19.1842365 14.2635616,12.0138944 C21.2806052,4.83832276 32.6595418,4.83832276 39.6765847,12.0138944 L40.0315581,12.3764905 C40.5465188,12.8922924 41.3639323,12.9127202 41.9089131,12.44033 L42.3238817,12.0139009 C49.3383648,4.8383293 60.7147417,4.8383293 67.7317846,12.0139009 C74.7584203,19.184243 74.7584203,30.815376 67.7392848,37.9929087 L67.7392016,37.9929021 Z" id="Page-1" fill="#FFFFFF" stroke-linecap="square"></path>
                        <path d="M26.4130818,12.899148 C20.4358861,12.899148 15.5904116,17.8486745 15.5904116,23.9542249" id="Oval-3"></path>
                    </g>
                </g>
            </g>
        </g>
    </g>
</svg>