<?xml version="1.0" encoding="UTF-8"?>
<svg width="90px" height="90px" viewBox="0 0 90 90" version="1.1" xmlns="http://www.w3.org/2000/svg" xmlns:xlink="http://www.w3.org/1999/xlink">
    <!-- Generator: Sketch 43.1 (39012) - http://www.bohemiancoding.com/sketch -->
    <title>Group 21</title>
    <desc>Created with Sketch.</desc>
    <defs></defs>
    <g id="Page-1" stroke="none" stroke-width="1" fill="none" fill-rule="evenodd">
        <g id="Home" transform="translate(-219.000000, -1126.000000)" stroke="#3ECB5B" stroke-width="2">
            <g id="Group-21" transform="translate(219.000000, 1126.000000)">
                <path d="M72.7392016,49.9929021 L60.477775,62.5307052 L60.472777,62.5358105 L48.4762894,74.8029879 C47.1114058,76.1971811 44.8991014,76.1971811 43.5341538,74.8029879 L31.5325466,62.5358105 L31.5275486,62.5307052 L19.2635616,49.9929021 C12.2490785,42.8173305 12.2490785,31.1842365 19.2635616,24.0138944 C26.2806052,16.8383228 37.6595418,16.8383228 44.6765847,24.0138944 L45.0315581,24.3764905 C45.5465188,24.8922924 46.3639323,24.9127202 46.9089131,24.44033 L47.3238817,24.0139009 C54.3383648,16.8383293 65.7147417,16.8383293 72.7317846,24.0139009 C79.7584203,31.184243 79.7584203,42.815376 72.7392848,49.9929087 L72.7392016,49.9929021 Z" id="Page-1" fill="#FFFFFF" stroke-linecap="square"></path>
                <path d="M31.4130818,24.899148 C25.4358861,24.899148 20.5904116,29.8486745 20.5904116,35.9542249" id="Oval-3"></path>
            </g>
        </g>
    </g>
</svg>