<?xml version="1.0" encoding="UTF-8"?>
<svg width="19px" height="19px" viewBox="0 0 19 19" version="1.1" xmlns="http://www.w3.org/2000/svg" xmlns:xlink="http://www.w3.org/1999/xlink">
    <!-- Generator: Sketch 43.1 (39012) - http://www.bohemiancoding.com/sketch -->
    <title>Group 22</title>
    <desc>Created with Sketch.</desc>
    <defs></defs>
    <g id="Page-1" stroke="none" stroke-width="1" fill="none" fill-rule="evenodd">
        <g id="Home" transform="translate(-439.000000, -1741.000000)">
            <g id="Group-20" transform="translate(388.000000, 1741.000000)">
                <g id="Group-22" transform="translate(51.000000, 0.000000)">
                    <path d="M14.6345238,8.78030303 L7.28333333,4.75 C6.96638271,4.71452793 6.69924022,4.71452793 6.40119048,4.75 C6.22508865,4.99830451 6.10714286,5.25324939 6.10714286,5.61363636 L6.10714286,13.3863636 C6.10714286,13.7389751 6.2551672,13.9950438 6.40119048,14.25 C6.58012208,14.193466 6.72814642,14.25 6.98928571,14.25 C7.02417142,14.25 7.1421409,14.193466 7.28333333,14.25 L14.6345238,10.219697 C14.7805522,10.0221716 14.9285647,9.76722673 14.9285714,9.64393939 C14.9297222,9.25508378 14.7816979,8.99901515 14.6345238,8.78030303 L14.6345238,8.78030303 Z" id="Fill-2" fill="#3ECB5B"></path>
                    <circle id="Oval-4" stroke="#3ECB5B" cx="9.5" cy="9.5" r="9"></circle>
                </g>
            </g>
        </g>
    </g>
</svg>