<?xml version="1.0" encoding="UTF-8"?>
<svg width="17px" height="16px" viewBox="0 0 17 16" version="1.1" xmlns="http://www.w3.org/2000/svg" xmlns:xlink="http://www.w3.org/1999/xlink">
    <!-- Generator: Sketch 46.2 (44496) - http://www.bohemiancoding.com/sketch -->
    <title>print</title>
    <desc>Created with Sketch.</desc>
    <defs>
        <rect id="path-1" x="0" y="10" width="17" height="6"></rect>
        <path d="M3.1875,0 L11.6875,0 L13.8125,2 L13.8125,9 L3.1875,9 L3.1875,0 Z M10.625,0 L10.625,3 L11.6875,3 L11.6875,0 L10.625,0 Z M11.6875,2 L11.6875,3 L13.8125,3 L13.8125,2 L11.6875,2 Z" id="path-2"></path>
    </defs>
    <g id="Symbols" stroke="none" stroke-width="1" fill="none" fill-rule="evenodd">
        <g id="Actions" transform="translate(-77.000000, -22.000000)">
            <g id="Rectangle-3" transform="translate(77.000000, 22.000000)">
                <g>
                    <use fill="#3ECB5B" fill-rule="evenodd" xlink:href="#path-1"></use>
                    <rect stroke="#3ECB5B" stroke-width="1" x="0.5" y="10.5" width="16" height="5"></rect>
                </g>
                <g id="Combined-Shape">
                    <use fill="#3ECB5B" fill-rule="evenodd" xlink:href="#path-2"></use>
                    <path stroke="#3ECB5B" stroke-width="1" d="M3.6875,0.5 L3.6875,8.5 L13.3125,8.5 L13.3125,2.21603633 L11.4892114,0.5 L3.6875,0.5 Z M10.125,3.5 L10.125,-0.5 L12.1875,-0.5 L12.1875,3.5 L10.125,3.5 Z M13.3125,2.5 L13.5625,2.5 L13.3125,2.5 Z M11.1875,1.5 L14.3125,1.5 L14.3125,3.5 L11.1875,3.5 L11.1875,1.5 Z"></path>
                </g>
                <rect id="Rectangle-6" fill="#FFFFFF" fill-rule="evenodd" x="3.1875" y="13" width="10.625" height="1"></rect>
            </g>
        </g>
    </g>
</svg>