<?xml version="1.0" encoding="UTF-8"?>
<svg width="35px" height="29px" viewBox="0 0 35 29" version="1.1" xmlns="http://www.w3.org/2000/svg" xmlns:xlink="http://www.w3.org/1999/xlink">
    <!-- Generator: Sketch 43.1 (39012) - http://www.bohemiancoding.com/sketch -->
    <title>״ copy 2</title>
    <desc>Created with Sketch.</desc>
    <defs></defs>
    <g id="Page-1" stroke="none" stroke-width="1" fill="none" fill-rule="evenodd">
        <g id="Home" transform="translate(-437.000000, -1581.000000)" fill="#3ECB5B">
            <path d="M437.783203,1605.95508 C439.313159,1603.87173 440.501298,1601.57684 441.347656,1599.07031 C442.194015,1596.56379 442.617188,1594.07358 442.617188,1591.59961 L442.617188,1581.78516 L453.75,1581.78516 L453.701172,1590.52539 C453.701172,1593.94338 452.91993,1597.3369 451.357422,1600.70605 C449.794914,1604.07521 447.760429,1606.86653 445.253906,1609.08008 L437.783203,1605.95508 Z M455.751953,1605.95508 C457.281909,1603.87173 458.470048,1601.57684 459.316406,1599.07031 C460.162765,1596.56379 460.585938,1594.07358 460.585938,1591.59961 L460.585938,1581.78516 L471.71875,1581.78516 L471.669922,1590.52539 C471.669922,1593.94338 470.88868,1597.3369 469.326172,1600.70605 C467.763664,1604.07521 465.729179,1606.86653 463.222656,1609.08008 L455.751953,1605.95508 Z" id="״-copy-2"></path>
        </g>
    </g>
</svg>