<?xml version="1.0" encoding="UTF-8"?>
<svg width="71px" height="67px" viewBox="0 0 71 67" version="1.1" xmlns="http://www.w3.org/2000/svg" xmlns:xlink="http://www.w3.org/1999/xlink">
    <!-- Generator: Sketch 43.2 (39069) - http://www.bohemiancoding.com/sketch -->
    <title>Group 3</title>
    <desc>Created with Sketch.</desc>
    <defs>
        <path d="M600.640593,652.160795 L600.640593,650.255344 C606.442974,650.017477 611.929226,647.560349 615.97541,643.395099 C616.552358,642.767539 616.845929,641.932487 616.790218,641.082244 C616.72696,640.214316 616.306898,639.409614 615.631232,638.86047 C609.510002,633.83241 608.090145,626.124643 607.857583,624.608781 C607.766489,623.993873 607.657678,623.313173 607.495726,622.665369 C604.567976,610.144612 596.197376,607.421892 589.719335,607.346099 C583.241295,607.422015 574.870371,610.144806 571.91768,622.665369 C571.755729,623.351134 571.651976,624.006518 571.560882,624.608781 C571.33314,626.104302 569.908464,633.814725 563.787235,638.86047 C563.121746,639.409588 562.709224,640.209198 562.648525,641.069612 C562.587793,641.924908 562.883859,642.765045 563.463333,643.395099 C567.507054,647.562811 572.995768,650.020191 578.798149,650.263117 L578.798149,652.160989 C573.096955,653.502138 560.41412,657.647112 560.41412,667.966112 C560.416651,669.294628 561.494658,670.372574 562.823174,670.375166 L616.590908,670.375166 C617.919425,670.372635 618.997371,669.294628 618.999962,667.966112 C619.025272,657.646594 606.342519,653.501943 600.641195,652.160989 L600.640593,652.160795 Z M595.017848,649.97193 C595.291137,650.009884 595.554307,650.042786 595.814971,650.075682 L595.814971,652.368325 C595.807378,653.562746 596.272988,654.714088 597.110579,655.566858 C595.384764,657.943003 592.62907,659.347377 589.69387,659.347377 C586.75867,659.347377 584.000255,657.942938 582.277161,655.566858 C583.112246,654.714088 583.577822,653.562682 583.57277,652.368325 L583.57277,650.068103 C583.830881,650.068103 584.096577,650.009904 584.369892,649.96435 L584.36736,649.96435 C585.235287,649.82011 585.870459,649.07362 585.870459,648.195521 C585.862867,647.486953 585.447871,646.84932 584.802619,646.5558 C582.294905,645.39934 580.283149,643.382596 579.126754,640.874882 C581.685062,642.264098 584.476191,643.172578 587.360992,643.557179 C587.765869,644.1316 588.426305,644.475766 589.129821,644.478292 L589.952208,644.478292 C591.156735,644.478292 592.133494,643.501533 592.133494,642.297006 C592.133494,641.092479 591.156735,640.118247 589.952208,640.118247 L589.182941,640.118247 C588.514925,640.118247 587.887332,640.426964 587.477402,640.953331 C584.132077,640.439642 580.948833,639.161764 578.175584,637.220878 C578.175584,637.084231 578.175584,636.947583 578.137629,636.813468 L577.785891,629.791272 C582.282558,629.325663 588.072371,627.673277 591.610029,622.665427 L591.612562,622.665427 C593.550921,626.80781 597.189766,629.910468 601.587449,631.170447 L601.301502,636.838732 C601.157262,638.913713 600.456312,640.907719 599.274588,642.618375 C598.092864,644.329031 596.473353,645.687865 594.585588,646.555793 C593.940316,646.849326 593.5228,647.487011 593.515221,648.195515 C593.512688,649.07614 594.150373,649.827657 595.018321,649.969397 L595.017848,649.97193 Z" id="path-1"></path>
    </defs>
    <g id="Page-1" stroke="none" stroke-width="1" fill="none" fill-rule="evenodd">
        <g id="services" transform="translate(-554.000000, -605.000000)">
            <g id="Group-6-Copy" transform="translate(235.000000, 602.000000)">
                <g id="Group-4">
                    <g id="Group-3" transform="translate(339.000000, 55.000000)">
                        <circle id="Oval" fill="#3ECB5B" cx="19" cy="4" r="4"></circle>
                        <path d="M0.605104509,4 L36.7659913,4" id="Line" stroke="#3ECB5B" stroke-width="2" stroke-linecap="square"></path>
                    </g>
                </g>
            </g>
            <g id="Page-1">
                <use fill="#FFFFFF" fill-rule="evenodd" xlink:href="#path-1"></use>
                <path stroke="#3ECB5B" stroke-width="2" d="M599.640593,652.160795 L599.640593,652.888956 L600.33359,653.112503 L600.334192,653.112698 C610.610111,655.532971 618.018775,660.294373 617.999965,667.963659 C617.998447,668.741934 617.366706,669.373686 616.589003,669.375167 L562.823174,669.375166 C562.047352,669.37365 561.4156,668.74191 561.414119,667.964207 C561.41412,660.29551 568.830217,655.533142 579.027139,653.134418 L579.798149,652.953045 L579.798149,652.160989 L579.798149,650.263117 L579.798149,649.304108 L578.839979,649.263993 C573.292516,649.031739 568.045946,646.682168 564.181035,642.698749 C563.804979,642.289342 563.604916,641.719227 563.646013,641.14044 C563.687439,640.553237 563.969143,640.006846 564.423679,639.631793 C567.27628,637.280386 569.362831,634.2365 570.806484,630.789604 C571.755221,628.52438 572.29394,626.437424 572.549485,624.759328 C572.673047,623.942408 572.761579,623.442841 572.890909,622.895208 C575.301652,612.672712 581.437124,608.443226 589.731054,608.34603 C598.002773,608.443083 604.132089,612.672444 606.521993,622.893059 C606.654203,623.422379 606.750205,623.95762 606.868379,624.755325 C607.130178,626.461844 607.665612,628.539063 608.613734,630.803731 C610.056381,634.249615 612.142384,637.288793 614.9965,639.633202 C615.462532,640.011985 615.749672,640.562331 615.792864,641.154935 C615.830243,641.725807 615.630715,642.292486 615.239241,642.718302 C611.388516,646.681799 606.143538,649.028912 600.599632,649.256183 L599.640593,649.295499 L599.640593,650.255344 L599.640593,652.160795 Z M595.268183,648.996954 L595.17949,648.98247 C594.795869,648.919823 594.514098,648.587428 594.515217,648.198391 C594.518577,647.88711 594.706568,647.599364 594.999657,647.466038 C597.055184,646.520989 598.814228,645.0442 600.097359,643.186747 C601.382223,641.326787 602.14255,639.160069 602.299094,636.908079 L602.586179,631.22083 L602.626184,630.42782 L601.862877,630.209125 C597.743112,629.028772 594.334131,626.122123 592.518305,622.2416 L592.248695,621.665427 L591.612562,621.665427 L591.610029,621.665427 L591.092102,621.665427 L590.793269,622.08845 C587.934444,626.135355 583.28412,628.216609 577.682896,628.79659 L576.739706,628.894253 L576.787143,629.841299 L577.138881,636.863495 L577.144552,636.976706 L577.175419,637.085776 C577.173649,637.079522 577.175584,637.107256 577.175584,637.220878 L577.175584,637.741594 L577.602198,638.040164 C580.501819,640.069492 583.829459,641.404894 587.325627,641.941746 L587.905742,642.030825 L588.266366,641.56777 C588.487764,641.283487 588.824822,641.118247 589.182941,641.118247 L589.952208,641.118247 C590.605291,641.118247 591.133494,641.645605 591.133494,642.297006 C591.133494,642.949248 590.60445,643.478292 589.952208,643.478292 L589.129821,643.478292 C588.753959,643.476936 588.396727,643.290872 588.178359,642.981062 L587.926491,642.623724 L587.493142,642.56595 C584.727789,642.197273 582.053772,641.32639 579.603958,639.996089 L576.957661,638.559093 L578.218656,641.293638 C579.47564,644.019487 581.661961,646.208664 584.383844,647.463889 C584.680306,647.598763 584.867081,647.885614 584.870517,648.206236 C584.870459,648.583629 584.589909,648.91365 584.203419,648.97788 L584.203454,648.978302 C584.125011,648.991616 584.124381,648.991727 584.050275,649.004802 C583.768545,649.05458 583.668852,649.068103 583.57277,649.068103 L582.57277,649.068103 L582.57277,650.068103 L582.57277,652.368325 C582.576723,653.304826 582.213049,654.203061 581.562685,654.867198 L580.971964,655.47043 L581.467622,656.153923 C583.378237,658.788589 586.437253,660.347377 589.69387,660.347377 C592.949457,660.347377 596.00586,658.789523 597.919686,656.154519 L598.416973,655.469841 L597.824006,654.866128 C597.172177,654.202487 596.809033,653.305591 596.81495,652.374682 L596.814971,650.075682 L596.814971,649.193949 L595.940177,649.083551 C595.576787,649.037692 595.428252,649.018728 595.268183,648.996954 L595.268183,648.996954 Z"></path>
            </g>
        </g>
    </g>
</svg>