<?xml version="1.0" encoding="UTF-8"?>
<svg width="14px" height="16px" viewBox="0 0 14 16" version="1.1" xmlns="http://www.w3.org/2000/svg" xmlns:xlink="http://www.w3.org/1999/xlink">
    <!-- Generator: Sketch 48.1 (47250) - http://www.bohemiancoding.com/sketch -->
    <title>icon_tender_type copy</title>
    <desc>Created with Sketch.</desc>
    <defs></defs>
    <g id="Single-tender" stroke="none" stroke-width="1" fill="none" fill-rule="evenodd" transform="translate(-322.000000, -662.000000)">
        <g id="Group-3" transform="translate(85.000000, 648.000000)" fill="#D8D8D8">
            <g id="Group-12-Copy">
                <g id="Alerts" transform="translate(236.000000, 14.058824)">
                    <path d="M7.00611433,1.04904701 C7.00207532,1.0136493 7,0.977655242 7,0.941176471 C7,0.421379059 7.42137906,9.54852354e-17 7.94117647,0 L8.05882353,1.11022302e-16 C8.57862094,1.5537067e-17 9,0.421379059 9,0.941176471 C9,0.977655242 8.99792468,1.0136493 8.99388567,1.04904701 C10.8357779,1.45500392 12.2869645,2.96680854 12.5610645,4.90163183 L13.3333333,10.3529412 L13.5882353,10.3529412 C14.3679314,10.3529412 15,10.9850098 15,11.7647059 C15,12.4957652 14.4443277,13.0970403 13.7323047,13.1692097 L13.7333333,13.1764706 L2.26666667,13.1764706 L2.26769529,13.1692097 C1.55567227,13.0970403 1,12.4957652 1,11.7647059 C1,10.9850098 1.63206859,10.3529412 2.41176471,10.3529412 L2.66666667,10.3529412 L3.43893549,4.90163183 C3.71303546,2.96680854 5.16422211,1.45500392 7.00611433,1.04904701 Z" id="Combined-Shape"></path>
                    <path d="M6,14.1176471 L10,14.1176471 C10,15.1572419 9.1045695,16 8,16 C6.8954305,16 6,15.1572419 6,14.1176471 Z" id="Combined-Shape"></path>
                </g>
            </g>
        </g>
    </g>
</svg>