<?xml version="1.0" encoding="UTF-8"?>
<svg width="14px" height="17px" viewBox="0 0 14 17" version="1.1" xmlns="http://www.w3.org/2000/svg" xmlns:xlink="http://www.w3.org/1999/xlink">
    <!-- Generator: Sketch 46.2 (44496) - http://www.bohemiancoding.com/sketch -->
    <title>Time</title>
    <desc>Created with Sketch.</desc>
    <defs></defs>
    <g id="Symbols" stroke="none" stroke-width="1" fill="none" fill-rule="evenodd">
        <g id="tender-box" transform="translate(-149.000000, -21.000000)" fill="#D8D8D8">
            <g id="Group-5" transform="translate(12.000000, -1.000000)">
                <g id="Group" transform="translate(0.000000, 19.457516)">
                    <g id="Group-3">
                        <g id="Alerts" transform="translate(136.000000, 3.117647)">
                            <path d="M7.00611433,1.04904701 C5.16422211,1.45500392 3.71303546,2.96680854 3.43893549,4.90163183 L3.43893549,4.90163183 L2.66666667,10.3529412 L2.41176471,10.3529412 L2.41176471,10.3529412 C1.63206859,10.3529412 1,10.9850098 1,11.7647059 C1,12.4957652 1.55567227,13.0970403 2.26769529,13.1692097 L2.26666667,13.1764706 L13.7333333,13.1764706 L13.7323047,13.1692097 C14.4443277,13.0970403 15,12.4957652 15,11.7647059 C15,10.9850098 14.3679314,10.3529412 13.5882353,10.3529412 L13.5882353,10.3529412 L13.3333333,10.3529412 L12.5610645,4.90163183 C12.2869645,2.96680854 10.8357779,1.45500392 8.99388567,1.04904701 C8.99792468,1.0136493 9,0.977655242 9,0.941176471 L9,0.941176471 C9,0.421379059 8.57862094,1.5537067e-17 8.05882353,1.11022302e-16 L8.05882353,0 L7.94117647,0 C7.42137906,9.54852354e-17 7,0.421379059 7,0.941176471 L7,0.941176471 L7,0.941176471 C7,0.977655242 7.00207532,1.0136493 7.00611433,1.04904701 Z" id="Combined-Shape"></path>
                            <path d="M6,14.1176471 C6,15.1572419 6.8954305,16 8,16 C9.1045695,16 10,15.1572419 10,14.1176471 L6,14.1176471 Z" id="Combined-Shape"></path>
                        </g>
                    </g>
                </g>
            </g>
        </g>
    </g>
</svg>