<?xml version="1.0" encoding="UTF-8"?>
<svg width="37px" height="32px" viewBox="0 0 37 32" version="1.1" xmlns="http://www.w3.org/2000/svg" xmlns:xlink="http://www.w3.org/1999/xlink">
    <!-- Generator: Sketch 48.2 (47327) - http://www.bohemiancoding.com/sketch -->
    <title>Page 1</title>
    <desc>Created with Sketch.</desc>
    <defs></defs>
    <g id="radar" stroke="none" stroke-width="1" fill="none" fill-rule="evenodd" transform="translate(-1134.000000, -277.000000)">
        <g id="Page-1" transform="translate(1134.000000, 277.000000)" fill="#3DCC5B">
            <path d="M29.3448276,15.55264 L29.3448276,16.0001408 C29.3448276,23.4254208 23.3492966,29.4401408 15.9482759,29.4401408 C8.54725517,29.4401408 2.55172414,23.4251648 2.55172414,16.0001408 C2.55172414,8.5751168 8.54725517,2.5601408 15.9482759,2.5601408 C19.2650069,2.5601408 22.3275862,3.7751168 24.6254138,5.8251648 L26.412131,4.0326528 C23.6685172,1.4726528 19.9677517,0.0001408 15.9487862,0.0001408 C7.1447,0.0001408 0.000510344828,7.1675008 0.000510344828,16.0001408 C0.000510344828,24.8327808 7.1447,32.0001408 15.9487862,32.0001408 C24.7528724,32.0001408 31.8970621,24.8327808 31.8970621,16.0001408 C31.8970621,15.0401408 31.8322738,14.1451648 31.6428848,13.2476288 L29.3448276,15.55264 Z" id="Fill-1"></path>
            <polygon id="Fill-2" points="8.99610345 12.09472 6.31481552 14.784704 15.94885 24.447424 36.4277121 3.904704 33.7464241 1.21472 15.9494241 19.072"></polygon>
        </g>
    </g>
</svg>